{"title":"The Purge 2013 WEBRip AAC x264-SSDD","uid":8747376,"size":314616770,"categoryP":"video","categoryS":"movies","magnet":"?xt=urn:btih:5dfa7d6227b4abcf589c8397c6a94fc157d2e745&amp;dn=The+Purge+2013+WEBRip+AAC+x264-SSDD&amp;tr=udp%3A%2F%2Ftracker.openbittorrent.com%3A80&amp;tr=udp%3A%2F%2Fopen.demonii.com%3A1337&amp;tr=udp%3A%2F%2Ftracker.coppersurfer.tk%3A6969&amp;tr=udp%3A%2F%2Fexodus.desync.com%3A6969","seeders":1,"leechers":0,"uploader":"AN0NYMOUS142857","files":1,"time":1374954950,"description":"Rating \t5.7 / 10\n8,762 people voted\nReleased\t2013\nGenre\tHorror, Sci-Fi, Thriller\nActors\tEthan Hawke, Lena Headey, Max Burkholder\nPlot\tA family is held hostage for harboring the target of a murderous syndicate during the Purge, a 12-hour period in which any and all crime is legalized.\nIMDB link\t\n &lt;a href=&quot;\nhttp://www.imdb.com/title/tt2184339/&quot; rel=&quot;nofollow&quot; target=&quot;_NEW&quot;&gt;\nhttp://www.imdb.com/title/tt2184339/&lt;/a&gt;\n\nSource - The Purge 2013 WEBrip XVID AC3 BHRG (Thumbs Up + Respect)\n\nNOTES - Enjoy.\n\nGeneral\nComplete name                            : The Purge 2013 WEBRip AAC x264-SSDD.mp4\nFormat                                   : MPEG-4\nFormat profile                           : Base Media\nCodec ID                                 : isom\nFile size                                : 300 MiB\nDuration                                 : 1h 19mn\nOverall bit rate mode                    : Variable\nOverall bit rate                         : 528 Kbps\n\nVideo\nID                                       : 1\nFormat                                   : AVC\nFormat/Info                              : Advanced Video Codec\nFormat profile                           : &lt;a class=&quot;__cf_email__&quot; href=&quot;/cdn-cgi/l/email-protection&quot; data-cfemail=&quot;652d0c020d2529514b54&quot;&gt;[email&amp;#160;protected]&lt;/a&gt;&lt;script cf-hash='f9e31' type=&quot;text/javascript&quot;&gt;\n/* &lt;![CDATA[ */!function(){try{var t=&quot;currentScript&quot;in document?document.currentScript:function(){for(var t=document.getElementsByTagName(&quot;script&quot;),e=t.length;e--;)if(t[e].getAttribute(&quot;cf-hash&quot;))return t[e]}();if(t&amp;&amp;t.previousSibling){var e,r,n,i,c=t.previousSibling,a=c.getAttribute(&quot;data-cfemail&quot;);if(a){for(e=&quot;&quot;,r=parseInt(a.substr(0,2),16),n=2;a.length-n;n+=2)i=parseInt(a.substr(n,2),16)^r,e+=String.fromCharCode(i);e=document.createTextNode(e),c.parentNode.replaceChild(e,c)}}}catch(u){}}();/* ]]&gt; */&lt;/script&gt;\nFormat settings, CABAC                   : Yes\nFormat settings, ReFrames                : 4 frames\nCodec ID                                 : avc1\nCodec ID/Info                            : Advanced Video Coding\nDuration                                 : 1h 19mn\nBit rate                                 : 492 Kbps\nMaximum bit rate                         : 1 675 Kbps\nWidth                                    : 640 pixels\nHeight                                   : 272 pixels\nDisplay aspect ratio                     : 2.35:1\nFrame rate mode                          : Constant\nFrame rate                               : 23.976 fps\nColor space                              : YUV\nChroma subsampling                       : 4:2:0\nBit depth                                : 8 bits\nScan type                                : Progressive\nBits/(Pixel*Frame)                       : 0.118\nStream size                              : 280 MiB (93%)\nWriting library                          : x264 core 133 r2334 a3ac64b\n\nAudio\nID                                       : 2\nFormat                                   : AAC\nFormat/Info                              : Advanced Audio Codec\nFormat profile                           : LC\nCodec ID                                 : 40\nDuration                                 : 1h 19mn\nBit rate mode                            : Variable\nBit rate                                 : 32.0 Kbps\nMaximum bit rate                         : 39.5 Kbps\nChannel(s)                               : 2 channels\nChannel positions                        : Front: L R\nSampling rate                            : 44.1 KHz\nCompression mode                         : Lossy\nStream size                              : 18.2 MiB (6%)","torrent":{"xt":"urn:btih:5dfa7d6227b4abcf589c8397c6a94fc157d2e745","amp;dn":"The+Purge+2013+WEBRip+AAC+x264-SSDD","amp;tr":["udp%3A%2F%2Ftracker.openbittorrent.com%3A80","udp%3A%2F%2Fopen.demonii.com%3A1337","udp%3A%2F%2Ftracker.coppersurfer.tk%3A6969","udp%3A%2F%2Fexodus.desync.com%3A6969"],"infoHash":"5dfa7d6227b4abcf589c8397c6a94fc157d2e745","infoHashBuffer":{"type":"Buffer","data":[93,250,125,98,39,180,171,207,88,156,131,151,198,169,79,193,87,210,231,69]},"announce":[],"urlList":[]}}